<?xml version="1.0" encoding="utf-8"?>
<!-- Generator: Adobe Illustrator 21.0.2, SVG Export Plug-In . SVG Version: 6.00 Build 0)  -->
<svg version="1.1" id="Layer_1" xmlns="http://www.w3.org/2000/svg" xmlns:xlink="http://www.w3.org/1999/xlink" x="0px" y="0px"
	 viewBox="0 0 512 512" style="enable-background:new 0 0 512 512;" xml:space="preserve">
<style type="text/css">
	.Drop_x0020_Shadow{fill:none;}
	.Outer_x0020_Glow_x0020_5_x0020_pt{fill:none;}
	.Blue_x0020_Neon{fill:none;stroke:#8AACDA;stroke-width:7;stroke-linecap:round;stroke-linejoin:round;}
	.Chrome_x0020_Highlight{fill:url(#SVGID_1_);stroke:#FFFFFF;stroke-width:0.3629;stroke-miterlimit:1;}
	.Jive_GS{fill:#FFDD00;}
	.Alyssa_GS{fill:#A6D0E4;}
	.st0{opacity:0.75;fill:#7570B3;}
	.st1{opacity:0.5;fill:#7570B3;}
	.st2{opacity:0.5;}
	.st3{fill:#E6AB02;}
	.st4{opacity:0.75;}
	.st5{opacity:0.25;}
	.st6{fill:#7570B3;}
	.st7{opacity:0.25;fill:#7570B3;}
</style>
<linearGradient id="SVGID_1_" gradientUnits="userSpaceOnUse" x1="0" y1="0" x2="6.123234e-17" y2="-1">
	<stop  offset="0" style="stop-color:#656565"/>
	<stop  offset="0.618" style="stop-color:#1B1B1B"/>
	<stop  offset="0.6292" style="stop-color:#545454"/>
	<stop  offset="0.9831" style="stop-color:#3E3E3E"/>
</linearGradient>
<g>
	<path class="st0" d="M172.3,117.9c1.7-1.3,3.4-2.6,5.2-3.8c1.2-0.8,2.4-1.2,3.6-1.8c0.2,1.8,0.5,3.5,0.5,5.3
		c-0.6,11.3-3.6,21.7-8.5,30.7c-6.2,11.5-13.4,22.1-20.2,33c-1.1,1.8-4.1,3.7,0.6,4.5c1,0.2,2.1,1.7,2.7,2.9
		c1.5,2.9,2.4,7.1,4.4,8.7c1.5,1.2,4.5-1.6,6.8-1.3c13.1,1.8,23.4,9.6,30.4,24.6c1.8,3.8,2.3,5.6-2.2,7.2
		c-7.6,2.8-14.8,7.2-22.1,11.3c-7.3,4.1-14.2,9.6-21.7,13c-15.7,7.3-31.1,3.2-46.1-4.5c-10.2-5.2-20-12-30.2-17
		c-9.1-4.5-18.5-7.8-27.9-11.1c-2.7-1-5.8-0.7-8.7-0.4c-4.6,0.6-2.3-1.8-1.1-3.8c1.3-2.3,3.5-4.2,4-6.8c2.2-11.3,8.7-11,15.1-9.6
		c6.8,1.5,13.6,3.9,20.3,6.6c6.9,2.8,13.7,3.5,20.6,1.4c1.6-0.5,3-2,4.6-3c-1.2-1.2-2.3-2.6-3.6-3.6c-3.9-3.2-8.1-5.9-11.6-9.7
		c-4.8-5.2-5.6-12.6-1.6-18.8c3.5-5.5,7.8-10.5,12.3-14.6c14.8-13.3,29.9-26.1,44.8-39.1c4.6-4,5.4-3.7,6.3,3.6
		c0.3,2.1,0.7,4.3,0.4,6.2c-1.2,7.2,1.1,7.1,4.8,4.3c6.1-4.7,12.2-9.6,18.3-14.4L172.3,117.9z"/>
	<path class="st1" d="M253.4,204.3c1.7-1.3,3.4-2.6,5.2-3.8c1.2-0.8,2.4-1.2,3.6-1.8c0.2,1.8,0.5,3.5,0.5,5.3
		c-0.6,11.3-3.6,21.7-8.5,30.7c-6.2,11.5-13.4,22.1-20.2,33c-1.1,1.8-4.1,3.7,0.6,4.5c1,0.2,2.1,1.7,2.7,2.9
		c1.5,2.9,2.4,7.1,4.4,8.7c1.5,1.2,4.5-1.6,6.8-1.3c13.1,1.8,23.4,9.6,30.4,24.6c1.8,3.8,2.3,5.6-2.2,7.2
		c-7.6,2.8-14.8,7.2-22.1,11.3c-7.3,4.1-14.2,9.6-21.7,13c-15.7,7.3-31.1,3.2-46.1-4.5c-10.2-5.2-20-12-30.2-17
		c-9.1-4.5-18.5-7.8-27.9-11.1c-2.7-1-5.8-0.7-8.7-0.4c-4.6,0.6-2.3-1.8-1.1-3.8c1.3-2.3,3.5-4.2,4-6.8c2.2-11.3,8.7-11,15.1-9.6
		c6.8,1.5,13.6,3.9,20.3,6.6c6.9,2.8,13.7,3.5,20.6,1.4c1.6-0.5,3-2,4.6-3c-1.2-1.2-2.3-2.6-3.6-3.6c-3.9-3.2-8.1-5.9-11.6-9.7
		c-4.8-5.2-5.6-12.6-1.6-18.8c3.5-5.5,7.8-10.5,12.3-14.6c14.8-13.3,29.9-26.1,44.8-39.1c4.6-4,5.4-3.7,6.3,3.6
		c0.3,2.1,0.7,4.3,0.4,6.2c-1.2,7.2,1.1,7.1,4.8,4.3c6.1-4.7,12.2-9.6,18.3-14.4L253.4,204.3z"/>
	<g class="st2">
		<path class="st3" d="M168.3,277c-4.8-5.2-5.6-12.6-1.6-18.8c3.5-5.5,7.8-10.5,12.3-14.6c6.3-5.7,12.7-11.3,19.1-16.9l-0.1-0.2
			c-0.6,0.4-1.3,0.9-2.4,1.3c-7.6,2.8-14.8,7.2-22.1,11.3c-7.3,4.1-14.2,9.6-21.7,13c-15.7,7.3-31.1,3.2-46.1-4.5
			c-10.2-5.2-20-12-30.2-17c-9.1-4.5-18.5-7.8-27.9-11.1c-2.7-1-5.8-0.7-8.7-0.4c-1.6,0.2-2.4,0-2.6-0.3c0.2,1.7,0.5,3.5,0.4,5.2
			c-0.6,11.3-3.6,21.7-8.5,30.7c-6.2,11.5-13.4,22.1-20.2,33c-1.1,1.8-4.1,3.7,0.6,4.5c1,0.2,2.1,1.7,2.7,2.9
			c1.5,2.9,2.4,7.1,4.4,8.7c1.5,1.2,4.5-1.6,6.8-1.3c13.1,1.8,23.4,9.6,30.4,24.6c1.4,2.9,2,4.6,0.3,5.9l0.1,0.2
			c8.6-7.4,17.2-14.8,25.7-22.2c4.6-4,5.4-3.7,6.3,3.6c0.3,2.1,0.7,4.3,0.4,6.2c-1.2,7.2,1.1,7.1,4.8,4.3
			c6.1-4.7,12.2-9.6,18.3-14.4l-0.1,0.2c1.7-1.3,3.4-2.6,5.2-3.8c1.1-0.8,2.4-1.2,3.6-1.8c-0.4-0.7,0.8-2.2,1.6-3.4
			c1.3-2.3,3.5-4.2,4-6.8c2.2-11.3,8.7-11,15.1-9.6c6.8,1.5,13.6,3.9,20.3,6.6c6.9,2.8,13.7,3.5,20.6,1.4c1.6-0.5,3-2,4.6-3
			c-1.2-1.2-2.3-2.6-3.6-3.6C176,283.4,171.8,280.8,168.3,277z"/>
	</g>
	<g class="st4">
		<path class="st3" d="M249.3,363.4c-4.8-5.2-5.6-12.6-1.6-18.8c3.5-5.5,7.8-10.5,12.3-14.6c6.3-5.7,12.7-11.3,19.1-16.9l-0.1-0.2
			c-0.6,0.4-1.3,0.9-2.4,1.3c-7.6,2.8-14.8,7.2-22.1,11.3c-7.3,4.1-14.2,9.6-21.7,13c-15.7,7.3-31.1,3.2-46.1-4.5
			c-10.2-5.2-20-12-30.2-17c-9.1-4.5-18.5-7.8-27.9-11.1c-2.7-1-5.8-0.7-8.7-0.4c-1.6,0.2-2.4,0-2.6-0.3c0.2,1.7,0.5,3.5,0.4,5.2
			c-0.6,11.3-3.6,21.7-8.5,30.7c-6.2,11.5-13.4,22.1-20.2,33c-1.1,1.8-4.1,3.7,0.6,4.5c1,0.2,2.1,1.7,2.7,2.9
			c1.5,2.9,2.4,7.1,4.4,8.7c1.5,1.2,4.5-1.6,6.8-1.3c13.1,1.8,23.4,9.6,30.4,24.6c1.4,2.9,2,4.6,0.3,5.9l0.1,0.2
			c8.6-7.4,17.2-14.8,25.7-22.2c4.6-4,5.4-3.7,6.3,3.6c0.3,2.1,0.7,4.3,0.4,6.2c-1.2,7.2,1.1,7.1,4.8,4.3
			c6.1-4.7,12.2-9.6,18.3-14.4l-0.1,0.2c1.7-1.3,3.4-2.6,5.2-3.8c1.1-0.8,2.4-1.2,3.6-1.8c-0.4-0.7,0.8-2.2,1.6-3.4
			c1.3-2.3,3.5-4.2,4-6.8c2.2-11.3,8.7-11,15.1-9.6c6.8,1.5,13.6,3.9,20.3,6.6c6.9,2.8,13.7,3.5,20.6,1.4c1.6-0.5,3-2,4.6-3
			c-1.2-1.2-2.3-2.6-3.6-3.6C257,369.8,252.8,367.2,249.3,363.4z"/>
	</g>
	<g class="st5">
		<path class="st3" d="M313.1,170.7c-4.8-5.2-5.6-12.6-1.6-18.8c3.5-5.5,7.8-10.5,12.3-14.6c6.3-5.7,12.7-11.3,19.1-16.9l-0.1-0.2
			c-0.6,0.4-1.3,0.9-2.4,1.3c-7.6,2.8-14.8,7.2-22.1,11.3c-7.3,4.1-14.2,9.6-21.7,13c-15.7,7.3-31.1,3.2-46.1-4.5
			c-10.2-5.2-20-12-30.2-17c-9.1-4.5-18.5-7.8-27.9-11.1c-2.7-1-5.8-0.7-8.7-0.4c-1.6,0.2-2.4,0-2.6-0.3c0.2,1.7,0.5,3.5,0.4,5.2
			c-0.6,11.3-3.6,21.7-8.5,30.7c-6.2,11.5-13.4,22.1-20.2,33c-1.1,1.8-4.1,3.7,0.6,4.5c1,0.2,2.1,1.7,2.7,2.9
			c1.5,2.9,2.4,7.1,4.4,8.7c1.5,1.2,4.5-1.6,6.8-1.3c13.1,1.8,23.4,9.6,30.4,24.6c1.4,2.9,2,4.6,0.3,5.9l0.1,0.2
			c8.6-7.4,17.2-14.8,25.7-22.2c4.6-4,5.4-3.7,6.3,3.6c0.3,2.1,0.7,4.3,0.4,6.2c-1.2,7.2,1.1,7.1,4.8,4.3
			c6.1-4.7,12.2-9.6,18.3-14.4l-0.1,0.2c1.7-1.3,3.4-2.6,5.2-3.8c1.1-0.8,2.4-1.2,3.6-1.8c-0.4-0.7,0.8-2.2,1.6-3.4
			c1.3-2.3,3.5-4.2,4-6.8c2.2-11.3,8.7-11,15.1-9.6c6.8,1.5,13.6,3.9,20.3,6.6c6.9,2.8,13.7,3.5,20.6,1.4c1.6-0.5,3-2,4.6-3
			c-1.2-1.2-2.3-2.6-3.6-3.6C320.8,177.1,316.6,174.4,313.1,170.7z"/>
	</g>
	<g class="st2">
		<path class="st3" d="M394.1,257.1c-4.8-5.2-5.6-12.6-1.6-18.8c3.5-5.5,7.8-10.5,12.3-14.6c6.3-5.7,12.7-11.3,19.1-16.9l-0.1-0.2
			c-0.6,0.4-1.3,0.9-2.4,1.3c-7.6,2.8-14.8,7.2-22.1,11.3c-7.3,4.1-14.2,9.6-21.7,13c-15.7,7.3-31.1,3.2-46.1-4.5
			c-10.2-5.2-20-12-30.2-17c-9.1-4.5-18.5-7.8-27.9-11.1c-2.7-1-5.8-0.7-8.7-0.4c-1.6,0.2-2.4,0-2.6-0.3c0.2,1.7,0.5,3.5,0.4,5.2
			c-0.6,11.3-3.6,21.7-8.5,30.7c-6.2,11.5-13.4,22.1-20.2,33c-1.1,1.8-4.1,3.7,0.6,4.5c1,0.2,2.1,1.7,2.7,2.9
			c1.5,2.9,2.4,7.1,4.4,8.7c1.5,1.2,4.5-1.6,6.8-1.3c13.1,1.8,23.4,9.6,30.4,24.6c1.4,2.9,2,4.6,0.3,5.9l0.1,0.2
			c8.6-7.4,17.2-14.8,25.7-22.2c4.6-4,5.4-3.7,6.3,3.6c0.3,2.1,0.7,4.3,0.4,6.2c-1.2,7.2,1.1,7.1,4.8,4.3
			c6.1-4.7,12.2-9.6,18.3-14.4l-0.1,0.2c1.7-1.3,3.4-2.6,5.2-3.8c1.1-0.8,2.4-1.2,3.6-1.8c-0.4-0.7,0.8-2.2,1.6-3.4
			c1.3-2.3,3.5-4.2,4-6.8c2.2-11.3,8.7-11,15.1-9.6c6.8,1.5,13.6,3.9,20.3,6.6c6.9,2.8,13.7,3.5,20.6,1.4c1.6-0.5,3-2,4.6-3
			c-1.2-1.2-2.3-2.6-3.6-3.6C401.9,263.5,397.6,260.9,394.1,257.1z"/>
	</g>
	<path class="st6" d="M317.1,11.6c1.7-1.3,3.4-2.6,5.2-3.8c1.2-0.8,2.4-1.2,3.6-1.8c0.2,1.8,0.5,3.5,0.5,5.3
		c-0.6,11.3-3.6,21.7-8.5,30.7c-6.2,11.5-13.4,22.1-20.2,33c-1.1,1.8-4.1,3.7,0.6,4.5c1,0.2,2.1,1.7,2.7,2.9
		c1.5,2.9,2.4,7.1,4.4,8.7c1.5,1.2,4.5-1.6,6.8-1.3c13.1,1.8,23.4,9.6,30.4,24.6c1.8,3.8,2.3,5.6-2.2,7.2
		c-7.6,2.8-14.8,7.2-22.1,11.3c-7.3,4.1-14.2,9.6-21.7,13c-15.7,7.3-31.1,3.2-46.1-4.5c-10.2-5.2-20-12-30.2-17
		c-9.1-4.5-18.5-7.8-27.9-11.1c-2.7-1-5.8-0.7-8.7-0.4c-4.6,0.6-2.3-1.8-1.1-3.8c1.3-2.3,3.5-4.2,4-6.8c2.2-11.3,8.7-11,15.1-9.6
		c6.8,1.5,13.6,3.9,20.3,6.6c6.9,2.8,13.7,3.5,20.6,1.4c1.6-0.5,3-2,4.6-3c-1.2-1.2-2.3-2.6-3.6-3.6c-3.9-3.2-8.1-5.9-11.6-9.7
		c-4.8-5.2-5.6-12.6-1.6-18.8c3.5-5.5,7.8-10.5,12.3-14.6c14.8-13.3,29.9-26.1,44.8-39.1c4.6-4,5.4-3.7,6.3,3.6
		c0.3,2.1,0.7,4.3,0.4,6.2c-1.2,7.2,1.1,7.1,4.8,4.3c6.1-4.7,12.2-9.6,18.3-14.4L317.1,11.6z"/>
	<path class="st0" d="M398.2,98c1.7-1.3,3.4-2.6,5.2-3.8c1.2-0.8,2.4-1.2,3.6-1.8c0.2,1.8,0.5,3.5,0.5,5.3
		c-0.6,11.3-3.6,21.7-8.5,30.7c-6.2,11.5-13.4,22.1-20.2,33c-1.1,1.8-4.1,3.7,0.6,4.5c1,0.2,2.1,1.7,2.7,2.9
		c1.5,2.9,2.4,7.1,4.4,8.7c1.5,1.2,4.5-1.6,6.8-1.3c13.1,1.8,23.4,9.6,30.4,24.6c1.8,3.8,2.3,5.6-2.2,7.2
		c-7.6,2.8-14.8,7.2-22.1,11.3c-7.3,4.1-14.2,9.6-21.7,13c-15.7,7.3-31.1,3.2-46.1-4.5c-10.2-5.2-20-12-30.2-17
		c-9.1-4.5-18.5-7.8-27.9-11.1c-2.7-1-5.8-0.7-8.7-0.4c-4.6,0.6-2.3-1.8-1.1-3.8c1.3-2.3,3.5-4.2,4-6.8c2.2-11.3,8.7-11,15.1-9.6
		c6.8,1.5,13.6,3.9,20.3,6.6c6.9,2.8,13.7,3.5,20.6,1.4c1.6-0.5,3-2,4.6-3c-1.2-1.2-2.3-2.6-3.6-3.6c-3.9-3.2-8.1-5.9-11.6-9.7
		c-4.8-5.2-5.6-12.6-1.6-18.8c3.5-5.5,7.8-10.5,12.3-14.6c14.8-13.3,29.9-26.1,44.8-39.1c4.6-4,5.4-3.7,6.3,3.6
		c0.3,2.1,0.7,4.3,0.4,6.2c-1.2,7.2,1.1,7.1,4.8,4.3c6.1-4.7,12.2-9.6,18.3-14.4L398.2,98z"/>
	<path class="st1" d="M479.3,184.4c1.7-1.3,3.4-2.6,5.2-3.8c1.2-0.8,2.4-1.2,3.6-1.8c0.2,1.8,0.5,3.5,0.5,5.3
		c-0.6,11.3-3.6,21.7-8.5,30.7c-6.2,11.5-13.4,22.1-20.2,33c-1.1,1.8-4.1,3.7,0.6,4.5c1,0.2,2.1,1.7,2.7,2.9
		c1.5,2.9,2.4,7.1,4.4,8.7c1.5,1.2,4.5-1.6,6.8-1.3c13.1,1.8,23.4,9.6,30.4,24.6c1.8,3.8,2.3,5.6-2.2,7.2
		c-7.6,2.8-14.8,7.2-22.1,11.3c-7.3,4.1-14.2,9.6-21.7,13c-15.7,7.3-31.1,3.2-46.1-4.5c-10.2-5.2-20-12-30.2-17
		c-9.1-4.5-18.5-7.8-27.9-11.1c-2.7-1-5.8-0.7-8.7-0.4c-4.6,0.6-2.3-1.8-1.1-3.8c1.3-2.3,3.5-4.2,4-6.8c2.2-11.3,8.7-11,15.1-9.6
		c6.8,1.5,13.6,3.9,20.3,6.6c6.9,2.8,13.7,3.5,20.6,1.4c1.6-0.5,3-2,4.6-3c-1.2-1.2-2.3-2.6-3.6-3.6c-3.9-3.2-8.1-5.9-11.6-9.7
		c-4.8-5.2-5.6-12.6-1.6-18.8c3.5-5.5,7.8-10.5,12.3-14.6c14.8-13.3,29.9-26.1,44.8-39.1c4.6-4,5.4-3.7,6.3,3.6
		c0.3,2.1,0.7,4.3,0.4,6.2c-1.2,7.2,1.1,7.1,4.8,4.3c6.1-4.7,12.2-9.6,18.3-14.4L479.3,184.4z"/>
	<path class="st7" d="M334.5,290.8c1.7-1.3,3.4-2.6,5.2-3.8c1.2-0.8,2.4-1.2,3.6-1.8c0.2,1.8,0.5,3.5,0.5,5.3
		c-0.6,11.3-3.6,21.7-8.5,30.7c-6.2,11.5-13.4,22.1-20.2,33c-1.1,1.8-4.1,3.7,0.6,4.5c1,0.2,2.1,1.7,2.7,2.9
		c1.5,2.9,2.4,7.1,4.4,8.7c1.5,1.2,4.5-1.6,6.8-1.3c13.1,1.8,23.4,9.6,30.4,24.6c1.8,3.8,2.3,5.6-2.2,7.2
		c-7.6,2.8-14.8,7.2-22.1,11.3c-7.3,4.1-14.2,9.6-21.7,13c-15.7,7.3-31.1,3.2-46.1-4.5c-10.2-5.2-20-12-30.2-17
		c-9.1-4.5-18.5-7.8-27.9-11.1c-2.7-1-5.8-0.7-8.7-0.4c-4.6,0.6-2.3-1.8-1.1-3.8c1.3-2.3,3.5-4.2,4-6.8c2.2-11.3,8.7-11,15.1-9.6
		c6.8,1.5,13.6,3.9,20.3,6.6c6.9,2.8,13.7,3.5,20.6,1.4c1.6-0.5,3-2,4.6-3c-1.2-1.2-2.3-2.6-3.6-3.6c-3.9-3.2-8.1-5.9-11.6-9.7
		c-4.8-5.2-5.6-12.6-1.6-18.8c3.5-5.5,7.8-10.5,12.3-14.6c14.8-13.3,29.9-26.1,44.8-39.1c4.6-4,5.4-3.7,6.3,3.6
		c0.3,2.1,0.7,4.3,0.4,6.2c-1.2,7.2,1.1,7.1,4.8,4.3c6.1-4.7,12.2-9.6,18.3-14.4L334.5,290.8z"/>
	<g>
		<path class="st3" d="M330.5,449.9c-4.8-5.2-5.6-12.6-1.6-18.8c3.5-5.5,7.8-10.5,12.3-14.6c6.3-5.7,12.7-11.3,19.1-16.9l-0.1-0.2
			c-0.6,0.4-1.3,0.9-2.4,1.3c-7.6,2.8-14.8,7.2-22.1,11.3c-7.3,4.1-14.2,9.6-21.7,13c-15.7,7.3-31.1,3.2-46.1-4.5
			c-10.2-5.2-20-12-30.2-17c-9.1-4.5-18.5-7.8-27.9-11.1c-2.7-1-5.8-0.7-8.7-0.4c-1.6,0.2-2.4,0-2.6-0.3c0.2,1.7,0.5,3.5,0.4,5.2
			c-0.6,11.3-3.6,21.7-8.5,30.7c-6.2,11.5-13.4,22.1-20.2,33c-1.1,1.8-4.1,3.7,0.6,4.5c1,0.2,2.1,1.7,2.7,2.9
			c1.5,2.9,2.4,7.1,4.4,8.7c1.5,1.2,4.5-1.6,6.8-1.3c13.1,1.8,23.4,9.6,30.4,24.6c1.4,2.9,2,4.6,0.3,5.9l0.1,0.2
			c8.6-7.4,17.2-14.8,25.7-22.2c4.6-4,5.4-3.7,6.3,3.6c0.3,2.1,0.7,4.3,0.4,6.2c-1.2,7.2,1.1,7.1,4.8,4.3
			c6.1-4.7,12.2-9.6,18.3-14.4l-0.1,0.2c1.7-1.3,3.4-2.6,5.2-3.8c1.1-0.8,2.4-1.2,3.6-1.8c-0.4-0.7,0.8-2.2,1.6-3.4
			c1.3-2.3,3.5-4.2,4-6.8c2.2-11.3,8.7-11,15.1-9.6c6.8,1.5,13.6,3.9,20.3,6.6c6.9,2.8,13.7,3.5,20.6,1.4c1.6-0.5,3-2,4.6-3
			c-1.2-1.2-2.3-2.6-3.6-3.6C338.2,456.3,334,453.7,330.5,449.9z"/>
	</g>
	<g class="st4">
		<path class="st3" d="M475.3,343.6c-4.8-5.2-5.6-12.6-1.6-18.8c3.5-5.5,7.8-10.5,12.3-14.6c6.3-5.7,12.7-11.3,19.1-16.9l-0.1-0.2
			c-0.6,0.4-1.3,0.9-2.4,1.3c-7.6,2.8-14.8,7.2-22.1,11.3c-7.3,4.1-14.2,9.6-21.7,13c-15.7,7.3-31.1,3.2-46.1-4.5
			c-10.2-5.2-20-12-30.2-17c-9.1-4.5-18.5-7.8-27.9-11.1c-2.7-1-5.8-0.7-8.7-0.4c-1.6,0.2-2.4,0-2.6-0.3c0.2,1.7,0.5,3.5,0.4,5.2
			c-0.6,11.3-3.6,21.7-8.5,30.7c-6.2,11.5-13.4,22.1-20.2,33c-1.1,1.8-4.1,3.7,0.6,4.5c1,0.2,2.1,1.7,2.7,2.9
			c1.5,2.9,2.4,7.1,4.4,8.7c1.5,1.2,4.5-1.6,6.8-1.3c13.1,1.8,23.4,9.6,30.4,24.6c1.4,2.9,2,4.6,0.3,5.9l0.1,0.2
			c8.6-7.4,17.2-14.8,25.7-22.2c4.6-4,5.4-3.7,6.3,3.6c0.3,2.1,0.7,4.3,0.4,6.2c-1.2,7.2,1.1,7.1,4.8,4.3
			c6.1-4.7,12.2-9.6,18.3-14.4l-0.1,0.2c1.7-1.3,3.4-2.6,5.2-3.8c1.1-0.8,2.4-1.2,3.6-1.8c-0.4-0.7,0.8-2.2,1.6-3.4
			c1.3-2.3,3.5-4.2,4-6.8c2.2-11.3,8.7-11,15.1-9.6c6.8,1.5,13.6,3.9,20.3,6.6c6.9,2.8,13.7,3.5,20.6,1.4c1.6-0.5,3-2,4.6-3
			c-1.2-1.2-2.3-2.6-3.6-3.6C483,350,478.8,347.3,475.3,343.6z"/>
	</g>
</g>
</svg>
